<?xml version="1.0" encoding="UTF-8" standalone="no"?>
<svg
   xmlns:dc="http://purl.org/dc/elements/1.1/"
   xmlns:cc="http://creativecommons.org/ns#"
   xmlns:rdf="http://www.w3.org/1999/02/22-rdf-syntax-ns#"
   xmlns:svg="http://www.w3.org/2000/svg"
   xmlns="http://www.w3.org/2000/svg"
   xmlns:sodipodi="http://sodipodi.sourceforge.net/DTD/sodipodi-0.dtd"
   xmlns:inkscape="http://www.inkscape.org/namespaces/inkscape"
   width="32"
   height="32"
   viewBox="0 0 32 32"
   fill="none"
   version="1.1"
   id="svg13"
   sodipodi:docname="bitbuck.svg"
   inkscape:version="1.0.1 (3bc2e813f5, 2020-09-07)">
  <metadata
     id="metadata17">
    <rdf:RDF>
      <cc:Work
         rdf:about="">
        <dc:format>image/svg+xml</dc:format>
        <dc:type
           rdf:resource="http://purl.org/dc/dcmitype/StillImage" />
        <dc:title></dc:title>
      </cc:Work>
    </rdf:RDF>
  </metadata>
  <sodipodi:namedview
     pagecolor="#ffffff"
     bordercolor="#666666"
     borderopacity="1"
     objecttolerance="10"
     gridtolerance="10"
     guidetolerance="10"
     inkscape:pageopacity="0"
     inkscape:pageshadow="2"
     inkscape:window-width="703"
     inkscape:window-height="480"
     id="namedview15"
     showgrid="false"
     inkscape:zoom="9.4647989"
     inkscape:cx="16"
     inkscape:cy="16"
     inkscape:window-x="632"
     inkscape:window-y="263"
     inkscape:window-maximized="0"
     inkscape:current-layer="svg13" />
  <path
     d="M4.77044 5C4.29089 5 3.93123 5.43959 4.01115 5.87918L7.24814 25.7007C7.32806 26.2203 7.76766 26.5799 8.28717 26.5799H23.9526C24.3123 26.5799 24.632 26.3002 24.7119 25.9405L27.9888 5.91915C28.0688 5.43959 27.7091 5.03997 27.2296 5.03997L4.77044 5ZM18.5177 19.3067H13.5223L12.2035 12.2333H19.7565L18.5177 19.3067Z"
     fill="#2684FF"
     id="path2" />
  <path
     d="M26.9098 12.2333H19.7165L18.5176 19.3067H13.5222L7.64771 26.3002C7.64771 26.3002 7.92744 26.54 8.32707 26.54H23.9925C24.3522 26.54 24.6719 26.2602 24.7518 25.9005L26.9098 12.2333Z"
     fill="url(#paint0_linear)"
     id="path4" />
  <defs
     id="defs11">
    <linearGradient
       id="paint0_linear"
       x1="28.5925"
       y1="14.2265"
       x2="16.672"
       y2="23.5316"
       gradientUnits="userSpaceOnUse">
      <stop
         offset="0.176"
         stop-color="#0052CC"
         id="stop6" />
      <stop
         offset="1"
         stop-color="#2684FF"
         id="stop8" />
    </linearGradient>
  </defs>
</svg>
